<svg xmlns="http://www.w3.org/2000/svg" width="55" height="55" viewBox="0 0 55 55"><circle fill="none" stroke="#FFF" stroke-width="2" stroke-miterlimit="10" cx="27.892" cy="27.378" r="24.892"/><path fill="#FFF" d="M14.353 28.402c.937-2.32 2.253-3.235 3.636-3.235 1.852 0 2.61 1.696 3.838 1.696.624 0 1.204-.58 1.628-1.83l1.963.915c-.937 2.32-2.253 3.235-3.636 3.235-1.852 0-2.61-1.696-3.837-1.696-.603 0-1.205.602-1.629 1.829l-1.963-.914zm17.992-6.58l.076 1.362c.414-.501.911-.89 1.492-1.166s1.227-.414 1.938-.414a4.8 4.8 0 0 1 1.542.234c.461.156.854.408 1.182.757.326.349.579.803.757 1.362s.267 1.238.267 2.037v7.614h-2.646v-7.635c0-.407-.046-.75-.137-1.03a1.69 1.69 0 0 0-.397-.681 1.503 1.503 0 0 0-.647-.375 3.146 3.146 0 0 0-.888-.115c-.545 0-1.019.131-1.422.392a2.85 2.85 0 0 0-.964 1.057v8.387h-2.646V21.822h2.493z"/></svg>